M48
; DRILL file {KiCad 9.0.1} date 2025-05-12T13:54:59+0200
; FORMAT={-:-/ absolute / metric / decimal}
; #@! TF.CreationDate,2025-05-12T13:54:59+02:00
; #@! TF.GenerationSoftware,Kicad,Pcbnew,9.0.1
; #@! TF.FileFunction,Plated,1,4,PTH
FMAT,2
METRIC
; #@! TA.AperFunction,Plated,PTH,ViaDrill
T1C0.300
; #@! TA.AperFunction,Plated,PTH,ViaDrill
T2C0.500
; #@! TA.AperFunction,Plated,PTH,ComponentDrill
T3C0.500
; #@! TA.AperFunction,Plated,PTH,ComponentDrill
T4C0.991
; #@! TA.AperFunction,Plated,PTH,ComponentDrill
T5C1.500
; #@! TA.AperFunction,Plated,PTH,ComponentDrill
T6C1.700
; #@! TA.AperFunction,Plated,PTH,ComponentDrill
T7C2.375
; #@! TA.AperFunction,Plated,PTH,ComponentDrill
T8C3.100
; #@! TA.AperFunction,Plated,PTH,ComponentDrill
T9C3.590
%
G90
G05
T1
X182.45Y-180.85
X182.65Y-186.05
X183.15Y-174.3
X183.6Y-165.65
X188.5Y-148.8
X189.0Y-173.9
X189.0Y-180.75
X189.25Y-165.8
X190.256Y-153.857
X192.5Y-147.95
X192.5Y-186.8
X192.6Y-149.5
X195.75Y-148.0
X196.15Y-153.05
X196.8Y-157.85
X196.85Y-166.25
X197.15Y-152.35
X197.25Y-175.55
X197.47Y-135.97
X197.5Y-181.3
X197.5Y-186.8
X198.55Y-156.45
X198.6Y-151.6
X200.25Y-150.15
X200.3Y-144.7
X202.45Y-157.3
X203.15Y-172.8
X204.15Y-177.3
X204.55Y-139.95
X206.075Y-140.95
X206.7Y-150.05
X208.0Y-157.85
X208.125Y-152.575
X208.15Y-172.8
X209.15Y-177.3
X210.6Y-143.35
X212.75Y-155.3
X213.15Y-172.85
X213.2Y-147.35
X214.15Y-177.35
X217.535Y-151.815
X217.55Y-155.9
X218.15Y-172.8
X218.749Y-134.49
X218.795Y-135.296
X218.795Y-136.836
X218.802Y-136.089
X218.881Y-143.729
X218.881Y-144.474
X218.886Y-142.215
X218.888Y-142.999
X219.15Y-177.35
X219.519Y-134.49
X219.519Y-136.82
X219.555Y-136.05
X219.581Y-144.467
X219.595Y-135.289
X219.611Y-142.218
X219.626Y-142.985
X219.64Y-143.722
X220.1Y-166.65
X220.299Y-136.839
X220.303Y-135.253
X220.303Y-135.941
X220.326Y-134.499
X220.341Y-142.97
X220.348Y-142.188
X220.356Y-143.685
X220.356Y-144.519
X223.15Y-172.8
X224.15Y-177.3
X224.95Y-137.65
X224.95Y-145.25
X224.95Y-162.0
X225.8Y-170.65
X225.926Y-163.195
X226.7Y-142.05
X228.15Y-172.8
X229.15Y-177.3
X229.35Y-170.55
X229.7Y-139.0
X230.7Y-140.0
X231.7Y-141.0
X232.2Y-151.85
X232.225Y-156.075
X232.7Y-142.0
X233.4Y-156.95
X233.55Y-155.3
X233.7Y-143.0
X233.7Y-149.6
X234.15Y-177.3
X234.7Y-157.75
X235.7Y-153.6
X236.7Y-154.58
X237.5Y-149.3
X238.0Y-137.6
X238.25Y-157.95
X239.0Y-136.65
X239.15Y-177.4
X242.3Y-142.2
X242.3Y-149.25
X243.3Y-181.35
X243.3Y-186.7
X243.45Y-170.2
X243.45Y-176.2
X247.177Y-151.98
X248.677Y-149.98
X248.677Y-152.98
X248.677Y-153.98
X248.727Y-150.98
X248.8Y-156.3
X248.85Y-181.45
X249.1Y-141.95
X249.127Y-141.13
X249.25Y-170.15
X249.25Y-175.5
X249.25Y-186.95
X250.027Y-143.245
X250.427Y-156.88
X250.757Y-152.9
X251.7Y-134.5
X253.6Y-159.8
X254.7Y-169.8
X254.95Y-158.5
X254.95Y-187.45
X255.0Y-175.7
X255.1Y-181.7
X255.4Y-151.65
X255.4Y-152.4
X255.4Y-153.15
X255.4Y-153.8
X255.4Y-154.55
X255.4Y-155.25
X255.729Y-157.879
X256.2Y-151.65
X256.2Y-152.4
X256.2Y-153.15
X256.2Y-153.8
X256.2Y-154.55
X256.2Y-155.25
X256.3Y-159.1
X257.0Y-147.35
X257.1Y-151.65
X257.1Y-152.4
X257.1Y-153.15
X257.1Y-153.8
X257.1Y-154.55
X257.1Y-155.25
X257.95Y-151.65
X257.95Y-152.4
X257.95Y-153.15
X257.95Y-153.8
X257.95Y-154.55
X257.95Y-155.25
X257.977Y-148.48
X258.178Y-160.98
X258.75Y-151.65
X258.75Y-152.4
X258.75Y-153.15
X258.75Y-153.8
X258.75Y-154.55
X258.75Y-155.25
X259.178Y-148.48
X259.178Y-157.98
X260.352Y-144.515
X260.678Y-157.98
X261.05Y-175.25
X261.05Y-181.45
X261.25Y-148.2
X261.327Y-141.98
X261.35Y-186.8
X261.6Y-134.45
X261.678Y-153.63
X262.0Y-169.65
X262.178Y-159.43
X262.477Y-153.98
X263.678Y-147.98
X263.678Y-148.98
X263.678Y-149.98
X263.678Y-150.98
X263.678Y-151.98
X263.678Y-152.98
X263.678Y-159.43
X268.9Y-134.45
X269.25Y-146.4
X269.3Y-140.4
X269.8Y-162.05
X270.0Y-186.6
X270.1Y-181.0
X270.4Y-175.2
X270.7Y-168.15
X276.9Y-152.1
X277.35Y-162.2
X277.85Y-134.45
X278.35Y-146.6
X278.6Y-140.2
X278.65Y-170.05
X279.25Y-174.8
X279.4Y-181.0
X279.6Y-186.45
X282.075Y-163.325
X285.3Y-134.4
X285.6Y-140.25
X285.6Y-146.7
X285.625Y-163.975
X286.15Y-169.95
X287.15Y-174.9
X287.3Y-180.7
X287.65Y-186.3
X287.7Y-152.15
X292.6Y-134.4
X293.35Y-140.0
X293.45Y-146.7
X294.85Y-180.6
X294.9Y-174.95
X295.1Y-186.3
T2
X246.5Y-138.5
X246.5Y-167.95
X266.05Y-138.5
X266.05Y-167.95
T3
X229.7Y-134.45
X230.7Y-134.45
X231.7Y-134.45
X232.7Y-134.45
X233.7Y-134.45
X234.7Y-134.45
X235.7Y-134.45
X236.7Y-134.45
X237.7Y-134.45
X238.7Y-134.45
X239.7Y-134.45
T4
X223.894Y-163.195
X224.91Y-168.275
X225.926Y-163.195
T5
X295.1Y-155.0
X295.1Y-165.4
T6
X292.55Y-152.45
X292.55Y-157.55
X292.55Y-162.85
X292.55Y-167.95
X297.65Y-152.45
X297.65Y-157.55
X297.65Y-162.85
X297.65Y-167.95
T7
X222.37Y-165.1
X222.37Y-168.275
X227.45Y-165.1
X227.45Y-168.275
T8
X185.924Y-136.652
X189.424Y-141.452
T9
X192.024Y-136.652
M30
